<?xml version="1.0" encoding="UTF-8"?>
<svg id="Layer_1" data-name="Layer 1" xmlns="http://www.w3.org/2000/svg" viewBox="0 0 250 150">
  <defs>
    <style>
      .cls-1 {
        fill: #edb44b;
      }

      .cls-1, .cls-2, .cls-3, .cls-4 {
        stroke-width: 0px;
      }

      .cls-2 {
        fill: #fff;
      }

      .cls-3 {
        fill: #221f42;
      }

      .cls-4 {
        fill: #74ae3e;
      }
    </style>
  </defs>
  <rect class="cls-2" width="252" height="150"/>
  <g>
    <path class="cls-3" d="M201.81,60.62c0,3.01-1.44,4.51-4.32,4.51-.01,0-.02,0-.03,0,0,0,0,0-.01,0-1.93,0-3.56-.09-4.9-.27,1.88-1.75,2.82-3.81,2.82-6.17,0-1.49-.37-2.86-1.1-4.11-.73-1.25-1.76-2.24-3.08-2.99-1.33-.75-2.82-1.12-4.5-1.12s-3.13.36-4.46,1.07c-1.32.72-2.37,1.71-3.12,2.97-.76,1.26-1.14,2.66-1.14,4.21,0,1.24.24,2.38.73,3.42.49,1.04,1.18,1.97,2.08,2.8-1.28.13-2.96.19-5.04.19,0,0,0,0-.01,0h-29.93c-1.83,0-3.52-.55-5.09-1.66.08-.51.12-1.03.12-1.54v-7.6l-4.17.58v5.71c0,1.6-.44,2.75-1.33,3.45-.89.71-2.27,1.06-4.15,1.06-.01,0-.03,0-.04,0-.01,0-.02,0-.04,0-1.1,0-2.05-.26-2.83-.79-.79-.53-1.25-1.38-1.41-2.57v-11.5l-4.17.58.04,17.55c0,2.03-.56,3.53-1.68,4.49-1.12.96-2.71,1.45-4.76,1.45l.35,3.51c3.45,0,6.01-.74,7.7-2.22,1.68-1.48,2.53-3.84,2.53-7.08v-.85c.98,1.24,2.39,1.85,4.24,1.85,0,0,.01,0,.02,0,0,0,.01,0,.02,0,3.96,0,6.7-.95,8.22-2.85.95.93,1.99,1.63,3.1,2.12,1.12.49,2.23.73,3.34.73h29.93s0,0,0,0c4.37,0,8.09-.52,11.15-1.55,3.37,1.03,6.89,1.55,10.57,1.55,0,0,0,0,.01,0,2.82,0,4.95-.66,6.37-1.97,1.43-1.31,2.14-3.2,2.14-5.67v-11.65l-4.2.58.04,9.76ZM190.03,62.32c-.87.98-2,1.72-3.42,2.24-1.39-.44-2.5-1.15-3.33-2.13-.84-.97-1.26-2.05-1.26-3.24,0-1.36.42-2.48,1.27-3.34.85-.86,1.94-1.29,3.28-1.29s2.46.44,3.38,1.31c.91.88,1.37,1.98,1.37,3.32,0,1.11-.43,2.15-1.29,3.12"/>
    <path class="cls-3" d="M201.87,45.96c1.06,1.04,2.76,1.03,3.81-.02h0c1.07-1.07,1.06-2.81-.03-3.86l-.05-.04c-1.06-1.02-2.74-1.01-3.79.02-1.08,1.07-1.07,2.8.01,3.86l.05.04Z"/>
    <path class="cls-3" d="M184.55,45.96c1.06,1.04,2.76,1.03,3.81-.02h0c1.07-1.07,1.06-2.81-.03-3.86l-.05-.04c-1.06-1.02-2.74-1.01-3.79.02-1.08,1.07-1.07,2.8.01,3.86l.05.04Z"/>
    <path class="cls-3" d="M136.14,73.48c-1.06-1.02-2.74-1.01-3.79.02-1.08,1.07-1.07,2.81.01,3.86l.04.04c1.06,1.04,2.76,1.03,3.81-.02,1.07-1.07,1.06-2.81-.03-3.86l-.04-.04Z"/>
    <path class="cls-3" d="M143.4,73.48c-1.06-1.02-2.74-1.01-3.79.02-1.08,1.07-1.07,2.81.01,3.86l.04.04c1.06,1.04,2.76,1.03,3.81-.02,1.07-1.07,1.06-2.81-.03-3.86l-.04-.04Z"/>
    <path class="cls-3" d="M189.5,81.1c-1.06-1.02-2.74-1.01-3.79.02-1.08,1.07-1.07,2.81.01,3.86l.04.04c1.06,1.04,2.76,1.03,3.81-.02,1.07-1.07,1.06-2.81-.03-3.86l-.04-.04Z"/>
    <polygon class="cls-3" points="136.23 101.36 121.84 82.26 117.29 82.26 117.29 108.5 121.5 108.5 121.5 89.21 135.92 108.5 140.44 108.5 140.44 81.96 136.23 82.54 136.23 101.36"/>
    <path class="cls-3" d="M164.03,105.06c-.22-.31-.33-.78-.33-1.43v-7.68c0-2.24-.74-3.99-2.22-5.25-1.48-1.26-3.65-1.89-6.5-1.89-1.6,0-3.12.15-4.59.46-1.47.31-2.71.69-3.74,1.16l.81,3.32c2.26-1.05,4.58-1.58,6.94-1.58,1.67,0,2.9.32,3.68.96.78.64,1.18,1.48,1.18,2.51v1.39c-1.39-.21-2.82-.31-4.28-.31-2.8,0-5.04.55-6.71,1.66-1.67,1.11-2.51,2.74-2.51,4.9,0,1.62.6,2.96,1.79,4.01,1.2,1.05,2.8,1.58,4.8,1.58,2.96,0,5.31-1.05,7.06-3.16.21,1.03.66,1.81,1.37,2.35.71.54,1.73.81,3.07.81.36,0,.82-.04,1.39-.12.57-.08,1.02-.17,1.35-.27v-3.2c-.33.15-.77.23-1.31.23-.62,0-1.04-.15-1.25-.46M159.26,103.06c-.8.85-1.62,1.47-2.45,1.85-.84.39-1.79.58-2.87.58s-1.99-.24-2.64-.73c-.66-.49-.98-1.18-.98-2.08s.39-1.58,1.16-2.05c.77-.46,2.05-.69,3.82-.69,1.54,0,2.87.09,3.97.27v2.85Z"/>
    <path class="cls-3" d="M178.32,80.34c-2.31,0-4.08.57-5.29,1.72s-1.81,2.76-1.81,4.84v2.31h-3.09v3.36h3.09v15.93h4.44v-15.93h6.44v-3.36h-6.44v-2.2c0-2.21,1.12-3.32,3.36-3.32,1.23,0,2.33.19,3.28.58l.81-3.16c-.59-.23-1.31-.42-2.16-.56-.85-.14-1.72-.21-2.62-.21"/>
    <rect class="cls-3" x="185.42" y="89.21" width="4.44" height="19.29"/>
    <path class="cls-3" d="M207.1,88.82c-1.49,0-2.87.43-4.13,1.29-1.26.86-2.24,2.03-2.93,3.49l-.35-4.4h-4.05v19.29h4.44v-12.19c.72-.9,1.74-1.63,3.05-2.2,1.31-.57,2.78-.85,4.4-.85l-.42-4.44Z"/>
    <path class="cls-1" d="M96.03,63.97l-11.46,11.46c-3.19,3.19-8.37,3.19-11.56,0-3.19-3.19-3.19-8.36,0-11.56l11.46-11.46c3.19-3.19,8.37-3.19,11.56,0,3.19,3.19,3.19,8.37,0,11.56"/>
    <path class="cls-4" d="M63.18,94.06l-4.93,4.93c-2.43,2.43-6.37,2.43-8.81,0-2.43-2.43-2.43-6.37,0-8.8l4.93-4.93c2.43-2.43,6.37-2.43,8.8,0,2.43,2.43,2.43,6.37,0,8.8"/>
    <path class="cls-1" d="M45.67,69.58l6.77,6.78c3.19,3.19,8.37,3.19,11.56,0h0c3.19-3.19,3.19-8.37,0-11.56l-6.77-6.77c-3.19-3.19-8.37-3.19-11.56,0-3.19,3.19-3.19,8.37,0,11.56"/>
    <path class="cls-4" d="M71.14,95.05l10.78,10.78c3.19,3.19,8.37,3.19,11.56,0,3.19-3.19,3.19-8.37,0-11.56l-10.78-10.78c-3.19-3.19-8.37-3.19-11.56,0-3.19,3.19-3.19,8.37,0,11.56"/>
    <path class="cls-1" d="M77.08,49.83c0,4.89-3.97,8.86-8.86,8.86s-8.86-3.97-8.86-8.86,3.97-8.86,8.86-8.86,8.86,3.96,8.86,8.86"/>
  </g>
</svg>